<svg id="logo" width="48" height="48" viewBox="0 0 48 48" xmlns="http://www.w3.org/2000/svg">
  <path
    d="m 27.941406,40.691407 1.161133,0.509765 q 4.616211,1.897461 7.108398,1.897461 0.792969,0 2.067383,-0.254883 l -2.095703,4.871094 q -0.849609,0.141602 -1.557617,0.141602 -2.803711,0 -7.731445,-2.378907 -4.248047,-2.039062 -6.683594,-2.039062 -2.520508,0 -4.049805,1.387695 l -1.670898,-2.407226 q 1.670898,-1.8125 4.361328,-2.378907 -4.757813,-1.500976 -8.071289,-4.814453 -3.2851564,-3.341797 -4.5878908,-7.165039 -1.3027343,-3.851562 -1.3027343,-7.646484 0,-8.354492 5.5224611,-14.2451177 Q 15.933594,0.25 25.109375,0.25 q 9.175781,0 14.839844,5.7490235 5.664062,5.7490235 5.664062,14.5000005 0,4.644531 -1.784179,8.864258 -1.78418,4.191406 -6.117188,7.533203 -4.333008,3.341797 -9.770508,3.794922 z M 11.374023,20.414063 q 0,6.485351 3.794922,10.875 3.794922,4.389648 9.96875,4.389648 6.117188,0 10.053711,-4.474609 3.936524,-4.50293 3.936524,-10.733398 0,-6.28711 -4.021485,-10.620118 -3.993164,-4.3613282 -10.053711,-4.3613282 -6.032226,0 -9.855468,4.2763672 -3.823243,4.276368 -3.823243,10.648438 z"
    id="Q" fill="#00a4ff" />

  <path id="circle" fill="#00a4ff"
    d="m 42,20.266602 a 18,18 0 0 1 -18,18 18,18 0 0 1 -18,-18 A 18,18 0 0 1 24,2.2666016 18,18 0 0 1 42,20.266602 Z" />

  <path
    d="m 25.390625,27.477539 h -2.414063 l -0.5625,-10.359375 q 1.101563,0.28125 2.203125,0.28125 3.070313,0 4.429688,-1.546874 1.359375,-1.546875 1.359375,-3.679688 0,-2.4843754 -1.476563,-3.8437504 -1.453125,-1.3828125 -3.703125,-1.3828125 -2.742187,0 -4.078125,1.5703125 -1.3125,1.5703124 -1.3125,3.9140634 0,0.492187 0.02344,1.148437 h -4.382812 q -0.02344,-0.632812 -0.02344,-1.078125 0,-4.8046879 2.835937,-7.0781254 2.859375,-2.2734375 6.796875,-2.2734375 4.734375,0 7.335938,2.5546875 2.601562,2.53125 2.601562,6.6796884 0,4.007812 -2.484375,6.398437 -2.460937,2.390625 -5.8125,2.390625 -0.257812,0 -0.75,-0.02344 z m -4.101563,8.789063 v -5.765625 h 5.742188 v 5.765625 z"
    id="?" fill="#ffffff" />
</svg>